#!OML:ASF F:\VICON\USERDATA\INSTALL\rory3\rory3.ASF
:FULLY-SPECIFIED
:DEGREES
21
root -0.7358718664860658 17.09858333367593 -4.031254052641943 1.6663029422043123 4.4802977543535585 -0.15921119781237847
lfemur -19.485917415095535 -1.0049462656169943 -24.59912079778107
ltibia 47.26720321162241
lfoot -21.890893106299387 -0.23318312280379505
ltoes 2.164771344536234
rfemur -22.47934663801719 -6.423684028389651 20.7512124215434
rtibia 108.0322032232384
rfoot 16.287128236048346 -9.477531629394203
rtoes 28.960145778448123
lowerback nan 1.6882268436030063 -1.5520193416229306
upperback 0.13802199044630603 1.9235877250247642 -0.24092777668346121
thorax -9.862766441270539 1.0174388041481097 1.0276054295138255
lowerneck -21.61483851070199 -4.8250119304644965 -1.7354888109486755
upperneck 14.206466693792423 -6.995382698204146 3.743780781651399
head 8.159266075274891 -2.9666753675509567 0.7829336996557807
lclavicle -3.1628480471785475e-15 1.4465371036096896e-15
lhumerus -50.429486853399276 -16.921754347529017 99.60374796485299
lradius 104.47445690614074
lwrist 36.14582604607068
lhand -25.33910305582268 1.8085176898353703
lfingers nan
lthumb 1.2641401131561367 31.98180064165745
rclavicle -2.8473347976782463e-15 1.5556792255718092e-15
rhumerus -50.639080609221324 9.686959300021122 -102.48749532667972
rradius 100.56059255391358
rwrist -7.704410412045017
rhand -18.299738054907863 nan
rfingers nan
rthumb 7.517141313272994 9.424825451054154
22
root -0.792054264291112 16.853589637748268 -2.913872122234542 2.931278344868101 4.3109739969908 0.5723744413132437
lfemur -17.370312560301993 -1.6990046729494377 -25.364411352894663
ltibia 47.770934589517985
lfoot -24.81498663733572 3.431945452189507
ltoes -0.5055471702415986
rfemur -29.27171763838569 -7.170426745638144 20.0704629606696
rtibia 111.02166414924346
rfoot 14.545842871857122 -7.151621584855976
rtoes 24.806253365757502
lowerback nan 1.5374012949369726 -2.4067728069724863
upperback 0.1457450940681797 1.5997332164550648 -0.6437972843608302
thorax -10.136560740169754 0.8953959729710285 1.3152985552449763
lowerneck -22.38951144360551 -4.545065875620332 -1.8503078223214537
upperneck 13.515308337487342 -6.508311110830476 3.7495618936181723
head 7.940476111441785 -2.749486492859722 0.8250840156078312
lclavicle -2.9767890186713655e-15 1.5426123313249735e-15
lhumerus -44.56053106186191 -19.110459751944894 98.57527906709059
lradius 104.51372437925549
lwrist 36.78260165248598
lhand -25.14691854392374 2.0411493946048718
lfingers nan
lthumb 1.290373949305632 31.860668515292442
rclavicle -2.5866020737739657e-15 1.7631799745889185e-15
rhumerus -52.072936712990675 7.760355130493549 -102.69266679737484
rradius 100.25504381151175
rwrist -8.065619818152369
rhand -17.742212105479187 nan
rfingers nan
rthumb 8.625963569695127 10.205320322106733
23
root -0.7371481048218574 16.773287728619174 -0.23133590063296872 4.333298687653812 4.434632852924007 0.8528973835875102
lfemur -14.940652690819677 -2.2518548473529005 -25.635363742935183
ltibia 47.15747756270169
lfoot -25.781508008498577 4.755845472496227
ltoes -1.381182858301484
rfemur -35.63786570378049 -7.635486684508951 20.559091923601883
rtibia 111.95577155787046
rfoot 13.322282418282288 -5.009912335463604
rtoes 21.01919004673005
lowerback nan 1.189082532802866 -2.6006644452134404
upperback 0.05912613240536024 1.1831640027722459 -0.440814317449032
thorax -10.094405652776254 0.7148045653653559 1.525434339978204
lowerneck -22.374459579742798 -4.221279966050404 -1.8495548378018671
upperneck 12.973834145752956 -5.9672281120548165 3.7273763669078885
head 7.828435325524695 -2.499475059862405 0.8676313535706226
lclavicle -1.6199768530820331e-15 1.4438767749458694e-15
lhumerus -39.14144175810394 -20.297139426915823 97.47642886532314
lradius 105.54745828829358
lwrist 36.73558373645231
lhand -24.93172528157356 2.3189377470406654
lfingers nan
lthumb 1.5551495177676913 32.1378496234842
rclavicle -1.5147075551454002e-15 1.2596462339605246e-15
rhumerus -53.608405612199725 6.883432770000552 -102.49725506101444
rradius 100.7328246218364
rwrist -9.788777134609239
rhand -17.362549901005142 nan
rfingers nan
rthumb 9.33484357367731 9.959707948982695
24
root -0.6472841901106723 16.87007637114153 1.5610105687872213 5.203073681917207 4.5238730621099865 0.5968856943184933
lfemur -12.051279108456203 -2.450306866578227 -25.382402574314284
ltibia 45.69165714950013
lfoot -24.96257163812882 4.947940434715302
ltoes -3.4347324552208134
rfemur -40.15781895314899 -7.7682666993072775 22.116852612892448
rtibia 110.43579322575539
rfoot 12.020314581692078 -3.358198298521449
rtoes 14.666967189745133
lowerback nan 0.7575557390777905 -2.3469511122931683
upperback -0.022863147959293117 0.7316580523638119 -0.09814951185658005
thorax -9.9108592877498 0.4812564444267423 1.804372184027041
lowerneck -22.145815549629067 -3.9008283374645107 -1.7716337240077555
upperneck 12.943259588715323 -5.46624496236206 3.6595051275860846
head 7.811826101582287 -2.2804806893548664 0.877103875359662
lclavicle -3.414308288744698e-16 2.2196929230283252e-15
lhumerus -35.42598845118631 -20.487010245611945 96.40165795947378
lradius 108.14735147954097
lwrist 36.187394819502586
lhand -24.818123942588006 1.8451112943672716
lfingers nan
lthumb 1.5446120757616637 31.44184902992905
rclavicle -9.462680394692444e-17 3.7907406447060164e-15
rhumerus -55.2248382727269 6.223105064144814 -102.25305211973962
rradius 101.86062619375211
rwrist -10.589606782968074
rhand -16.99072759485939 nan
rfingers nan
rthumb 9.068243199315202 9.850549206815696
25
root -0.6350546336142027 16.978367113594363 1.732488568502136 5.747806302340113 3.9866647361930534 0.328678013600455
lfemur -9.263503128583817 -2.104500860991911 -24.942680797803522
ltibia 44.18638443622041
lfoot -22.56869728701261 4.627958996469217
ltoes -10.027663317902615
rfemur -43.75196435114472 -6.905853012560595 23.3798814005603
rtibia 107.08843838959946
rfoot 10.12997144452356 -1.968220130738822
rtoes 10.100074420955565
lowerback nan 0.4039739389164158 -2.396221076885353
upperback -0.23308596266970705 0.3018216876725206 0.3462233870704181
thorax -9.87276049897113 0.26613206467349476 2.347434270162231
lowerneck -22.284428018735 -3.6173940352450873 -1.7138840394351467
upperneck 13.240739202649895 -5.046385065700297 3.5429447974395405
head 7.92978853658892 -2.07047463707503 0.8662005128971326
lclavicle 4.084770354424715e-16 3.944717162026545e-15
lhumerus -33.81643775769306 -19.42207972401952 95.61449016058712
lradius 111.8749210894466
lwrist 35.65153027598883
lhand -24.63163224758691 1.5187976018929068
lfingers nan
lthumb 1.702734428915585 31.123261533741918
rclavicle 2.1192508049838987e-16 4.970595406288406e-15
rhumerus -56.841941261578995 6.133902411578948 -101.87019348268188
rradius 103.35900089844965
rwrist -11.674059203105168
rhand -16.804765820060865 nan
rfingers nan
rthumb 8.561454313858599 9.696863931436063
